<svg height="62" viewBox="0 0 298 62" width="298" xmlns="http://www.w3.org/2000/svg"><g fill="none" transform="translate(-2 -2)"><g fill="#000" transform="translate(79.708337 14.142427)"><path d="m72.0765746 0c4.0364308.18156015 7.4787006.79512934 10.4823277 2.89638949 1.6263512 1.13804226 2.7778643 2.60123945 2.6978046 4.69484529-.0662566 1.72773003-.7177787 3.19215192-2.3849269 3.98330102-1.7990473.8536082-3.5030046.6699049-5.2502127-.3248488-1.5748183-.8967785-3.2352181-1.7133399-4.9554325-2.25924502-1.0119451-.32117468-2.2355428-.18186632-3.3263209-.00979752-1.9284929.30402906-2.8017902 1.26663464-2.8705008 2.83760444-.0641091 1.4635034.7199257 2.4114126 2.7011787 2.7601428 2.3582401.4148634 4.7563564.6031594 7.1363753.8986156.4548999.0563357.9079592.1399207 1.356724.2354465 5.7265847 1.2204025 8.4467813 3.9646244 8.911497 8.9830938.5769836 6.2309114-1.7840173 10.6100932-7.180853 12.6038869-6.3363897 2.340993-12.6439453 1.9570529-18.7150023-1.0440475-1.0720667-.5299842-2.0573251-1.3511381-2.891666-2.2206671-1.9677563-2.051048-2.0060991-5.2153382-.2156404-7.0857445 1.7294169-1.8064163 4.8186256-1.8679569 6.9369924.0474566 2.4217357 2.1906625 5.1833428 3.1955199 8.4158004 2.8908785.7521337-.071032 1.5150033-.2437131 2.2248066-.5018164 1.3128599-.4773225 1.8956717-1.5207576 1.8324824-2.8755697-.0592014-1.2721458-.9282042-1.9445-2.0662206-2.1223861-2.3168296-.3622018-4.6539042-.5930556-6.980243-.8952476-.8598006-.1117529-1.7245089-.2231996-2.5677454-.4179252-5.2864083-1.2216273-7.9498577-4.0411675-8.4734678-8.9292075-.6131792-5.72235938 1.5766589-10.05469673 6.25817-12.3378232 2.9649776-1.44605154 6.1462089-1.7984558 8.9240732-1.8073348"/><path d="m210.60044 18.6885596c2.793421 3.6234469 5.519611 7.1804227 8.271472 10.7174878 1.050933 1.3508667 1.602221 2.8034312 1.311908 4.5454671-.346847 2.0826626-1.578079 3.6608179-3.440666 4.041266-2.112866.4316035-4.070797.1669439-5.445352-1.7781815-2.176735-3.0794245-4.351637-6.1603807-6.532345-9.2373546-.28909-.4077106-.607212-.7948978-.994092-1.2987925-2.373537 3.34776-4.630337 6.6131202-6.9889 9.8034322-.645106.873009-1.487013 1.7205935-2.427321 2.2284704-1.892535 1.0224926-4.400838.4147558-5.710607-1.1444077-1.523684-1.8140208-1.601305-4.4897169-.076398-6.5111159 2.45513-3.2552515 4.973517-6.4624111 7.464402-9.6907066.341958-.4432436.678721-.8904692 1.117246-1.4660426-1.311603-1.7117103-2.631763-3.4338355-3.951616-5.1559607-1.364165-1.7800195-2.785782-3.5189922-4.075687-5.35139226-1.313131-1.86548248-1.166447-4.56476516.196495-6.30373791 1.241928-1.58428167 3.678723-2.28636473 5.674547-1.39467023.922584.41230532 1.801774 1.1664626 2.41632 1.98096472 1.932872 2.56113282 3.728534 5.22641413 5.583786 7.84636018.286646.4046474.608435.7844829 1.000815 1.2871523 2.196905-3.10056054 4.317717-6.07981874 6.422943-9.07041077.888357-1.26142149 1.981767-2.18773002 3.579099-2.33905159 2.031885-.19236831 3.792709.34675307 4.819805 2.22081247 1.057961 1.92980945 1.095855 3.93129755-.282979 5.7575712-2.242132 2.96914969-4.540798 5.89510839-6.814406 8.84036519-.341958.4432436-.677499.8913882-1.118469 1.4724753"/><path d="m17.534312 24.2089688c1.618031-4.3513337 3.1075154-8.3483571 4.5899435-12.3481391.9740706-2.62790275 1.9235977-5.26469389 2.9096333-7.88799918 1.1857584-3.15507706 3.8352305-4.4065031 6.8108244-3.24549359 2.4236721.94554233 3.4615556 3.86952088 2.2537081 6.77541612-2.3666083 5.69440225-4.8203457 11.35233135-7.2348137 17.02681135-1.3765842 3.2359922-2.7697353 6.4652413-4.1119586 9.7153324-1.0056704 2.4348099-2.6144976 3.9682128-5.4032541 3.9697453-2.7599179.0018391-4.4334786-1.4472773-5.4796458-3.8805547-3.72386429-8.6622098-7.49282732-17.3051103-11.20963538-25.97007861-1.48641643-3.46525174-.38165161-6.69603348 2.53810592-7.68969579 2.98479782-1.01573007 5.4928379.14619893 6.63165686 3.15599655 2.4344096 6.43397875 4.8292427 12.88266945 7.2427903 19.32461715.0886634.2369219.2027908.464649.4626452 1.0540421"/><path d="m39.7647135 19.2729225c0-4.7017568-.0821028-9.40566074.0269591-14.10496383.0817965-3.53222205 2.7139863-5.44862736 6.1653656-4.71003837 2.3341077.49965176 3.6569422 2.27711155 3.6701155 5.1274884.0309418 6.7463724.0128669 13.4930515.0140924 20.2397306.0003064 2.3510318.0214448 4.7023702-.0076588 7.0530953-.0425832 3.4598356-1.7851222 5.3262448-4.9313733 5.3363669-3.1627943.0101218-4.9065586-1.786048-4.9522053-5.295266-.0594328-4.5480886-.0147051-9.0974042-.0147051-13.646413z"/><path d="m93.0050913 19.3939897c0-4.6173106-.072344-9.2361438.0236037-13.85162739.0732635-3.51589191 2.4176943-5.36062368 5.8947963-4.85939745 2.4854397.35871476 3.9473367 2.19217961 3.9589857 5.15264218.030347 7.71267196.014101 15.42564836.013488 23.13832026-.000307 1.522254.044448 3.0472485-.031881 4.5658482-.148979 2.9641168-1.983324 4.6715137-4.9248981 4.6748633-2.9664037.0033497-4.8292574-1.6525847-4.8927115-4.6654234-.0993195-4.716277-.0263627-9.4365126-.0263627-14.1552257-.0049044 0-.0101157 0-.0150204 0"/><path d="m181.701543 24.0196485h-.001843c0-.1438086.001229-.2876173.001843-.4314259v-.2428294h.000922c.014131-2.7707538.102299-5.5445543-.025498-8.308605-.348675-7.54690672-4.0775-12.65058996-10.698639-14.17520527-2.633341-.60631184-5.491554-.66389623-8.203232-.44148033-6.061415.49662729-10.648564 4.42638112-12.166453 10.2113273-.483536 1.8430052-.672773 3.8023979-.705644 5.7136513-.092468 5.3282319-.040858 10.6592059-.022119 15.9886564.002458.7553001.066356 1.5255295.22733 2.2616347.544978 2.4928863 2.304635 3.720439 5.074066 3.6098404 2.531043-.1008487 4.149386-1.4740384 4.527553-3.9065982.12411-.7985644.166196-1.6163235.168654-2.4252472.015053-4.9239225-.018125-9.8478449.024883-14.771158.011674-1.3098164.084481-2.6528428.38984-3.9190901.676153-2.8054872 2.653617-4.18020023 5.630718-4.12810007 2.906137.05088144 4.78038 1.43686767 5.410145 4.21615237.287849 1.2711221.354205 2.6117111.364342 3.9218322.039937 5.177111-.013516 10.355136.029799 15.5322469.027648 3.3088173 1.497306 5.1573069 4.169047 5.4397447 3.535595.3738415 5.627645-1.371971 5.804286-4.951039z"/><path d="m132.674182 24.9411839c-.55642 3.0786821-2.840297 4.770121-6.038095 4.7242163-3.174395-.0455988-5.569125-1.6697107-5.836404-4.7208499-.334406-3.8189735-.339949-7.713843.012317-11.5300622.282983-3.0649107 2.66478-4.61710509 5.895834-4.61924731 3.22859-.00244826 5.386834 1.56045721 5.949721 4.61282061.356884 1.9350404.353189 3.9358777.510538 5.898461-.155502 1.9007649-.16166 3.7966332-.493911 5.6346615m10.211398-6.0710631.000924-.0009181c.013549-1.7462187.100384-3.4973339-.023094-5.2337595-.472664-6.63844652-4.576376-11.72898308-10.9575-13.09755826-2.702039-.57962464-5.611927-.65123613-8.377091-.4024321-6.678886.60043481-11.715302 5.05687302-12.588576 11.63778546-.610615 4.6024155-.667273 9.3774331-.194301 13.9969864.63063 6.1592002 4.217645 10.4304891 10.39954 12.0313427 2.194888.5683014 4.563444.7828297 6.834697.6949986 6.903055-.2668598 11.881273-3.6108716 13.885863-9.262671.876353-2.6780862 1.019538-10.3637742 1.019538-10.3637742"/></g><ellipse cx="61.762436" cy="8.281989" fill="#1c2d41" rx="6.126315" ry="5.874767"/><path d="m-7.06404927 27.0880392h55.65267227c3.2445444 0 5.8747672 2.6302228 5.8747672 5.8747671s-2.6302228 5.8747672-5.8747672 5.8747672h-55.65267227c-3.24454433 0-5.87476713-2.6302229-5.87476713-5.8747672s2.6302228-5.8747671 5.87476713-5.8747671z" fill="#ff1e59" transform="matrix(.4539905 .89100652 -.89100652 .4539905 40.706481 -.501328)"/><path d="m15.7424021 18.9107978h37.2976071c3.2445443 0 5.8747672 2.6302229 5.8747672 5.8747672s-2.6302229 5.8747671-5.8747672 5.8747671h-37.2976071c-3.2445443 0-5.87476715-2.6302228-5.87476715-5.8747671s2.63022285-5.8747672 5.87476715-5.8747672z" fill="#ffb02f" transform="matrix(.4539905 .89100652 -.89100652 .4539905 40.862025 -17.109635)"/><path d="m38.6709777 10.46545h18.3407365c3.2445443 0 5.8747671 2.6302228 5.8747671 5.8747671s-2.6302228 5.8747672-5.8747671 5.8747672h-18.3407365c-3.2445443 0-5.8747672-2.6302229-5.8747672-5.8747672s2.6302229-5.8747671 5.8747672-5.8747671z" fill="#1872ff" transform="matrix(.4539905 .89100652 -.89100652 .4539905 40.681069 -33.705038)"/></g></svg>